# xmcd
#
# Track frame offsets: 
#        150
#        9786
#        29385
#        48962
#        74139
#        91760
#        116836
#        128970
#        156330
#        171585
#        190961
#        214374
#        229935
#
# Disc length: 3360 seconds
#
# Revision: 1
# Processed by: cddbd v1.5.2PL0 Copyright (c) Steve Scherf et al.
# Submitted via: ExactAudioCopy v0.99pb5
#
DISCID=bc0d1e0d
DTITLE=Barbara Morrison - I Know How To Do It
DYEAR=1997
DGENRE=Chartmaker
TTITLE0=Don't Let Me Loose This Dream
TTITLE1=I Ain't Got Nothing But The Blues
TTITLE2=Baby Come Home
TTITLE3=The Very Thought Of You
TTITLE4=If I Were A Bell
TTITLE5=Don't Touch Me
TTITLE6=September In The Rain
TTITLE7=Don't Explain
TTITLE8=Love For Sale
TTITLE9=I Know How To Do It
TTITLE10=You Don't Know What Love Is
TTITLE11=Still Called The Blues
TTITLE12=Don't Go To Strangers (With Al Grey)
EXTD=
EXTT0=
EXTT1=
EXTT2=
EXTT3=
EXTT4=
EXTT5=
EXTT6=
EXTT7=
EXTT8=
EXTT9=
EXTT10=
EXTT11=
EXTT12=
PLAYORDER=
